<mxfile host="app.diagrams.net" modified="2023-09-05T16:17:41.974Z" agent="Mozilla/5.0 (Macintosh; Intel Mac OS X 10_15_7) AppleWebKit/537.36 (KHTML, like Gecko) Chrome/116.0.0.0 Safari/537.36" etag="PtymAqEX1DsNrb2XvXiL" version="21.7.2" type="github">
  <diagram id="C5RBs43oDa-KdzZeNtuy" name="Page-1">
    <mxGraphModel dx="1688" dy="964" grid="1" gridSize="10" guides="1" tooltips="1" connect="1" arrows="1" fold="1" page="1" pageScale="1" pageWidth="827" pageHeight="1169" math="0" shadow="0">
      <root>
        <mxCell id="WIyWlLk6GJQsqaUBKTNV-0" />
        <mxCell id="WIyWlLk6GJQsqaUBKTNV-1" parent="WIyWlLk6GJQsqaUBKTNV-0" />
        <mxCell id="2iJt_lVHC3lyq4W-ZF9s-17" value="104 x 104" style="rounded=1;whiteSpace=wrap;html=1;fontSize=12;glass=0;strokeWidth=1;shadow=0;fillColor=#f8cecc;strokeColor=#b85450;fontFamily=Verdana;" parent="WIyWlLk6GJQsqaUBKTNV-1" vertex="1">
          <mxGeometry x="98" y="730" width="80" height="80" as="geometry" />
        </mxCell>
        <mxCell id="2iJt_lVHC3lyq4W-ZF9s-18" value="美术素材" style="rounded=1;whiteSpace=wrap;html=1;fontSize=12;glass=0;strokeWidth=1;shadow=0;fontFamily=Helvetica;" parent="WIyWlLk6GJQsqaUBKTNV-1" vertex="1">
          <mxGeometry x="98" y="670" width="80" height="30" as="geometry" />
        </mxCell>
        <mxCell id="2iJt_lVHC3lyq4W-ZF9s-19" value="自动导图工具" style="rounded=1;whiteSpace=wrap;html=1;fontSize=12;glass=0;strokeWidth=1;shadow=0;fontFamily=Verdana;" parent="WIyWlLk6GJQsqaUBKTNV-1" vertex="1">
          <mxGeometry x="218" y="670" width="250" height="30" as="geometry" />
        </mxCell>
        <mxCell id="2iJt_lVHC3lyq4W-ZF9s-20" value="Unity" style="rounded=1;whiteSpace=wrap;html=1;fontSize=12;glass=0;strokeWidth=1;shadow=0;fontFamily=Verdana;" parent="WIyWlLk6GJQsqaUBKTNV-1" vertex="1">
          <mxGeometry x="508" y="670" width="220" height="30" as="geometry" />
        </mxCell>
        <mxCell id="2iJt_lVHC3lyq4W-ZF9s-21" value="" style="group;fontFamily=Verdana;" parent="WIyWlLk6GJQsqaUBKTNV-1" vertex="1" connectable="0">
          <mxGeometry x="368" y="720" width="100" height="100" as="geometry" />
        </mxCell>
        <mxCell id="2iJt_lVHC3lyq4W-ZF9s-22" value="" style="rounded=1;whiteSpace=wrap;html=1;fontSize=12;glass=0;strokeWidth=1;shadow=0;fontFamily=Helvetica;" parent="2iJt_lVHC3lyq4W-ZF9s-21" vertex="1">
          <mxGeometry width="100" height="100" as="geometry" />
        </mxCell>
        <mxCell id="2iJt_lVHC3lyq4W-ZF9s-23" value="104 x 104" style="rounded=1;whiteSpace=wrap;html=1;fontSize=12;glass=0;strokeWidth=1;shadow=0;fillColor=#e1d5e7;strokeColor=#9673a6;fontFamily=Helvetica;" parent="2iJt_lVHC3lyq4W-ZF9s-21" vertex="1">
          <mxGeometry x="5" y="5" width="90" height="90" as="geometry" />
        </mxCell>
        <mxCell id="2iJt_lVHC3lyq4W-ZF9s-24" value="108 x 108" style="rounded=1;whiteSpace=wrap;html=1;fontSize=12;glass=0;strokeWidth=1;shadow=0;fillColor=#f8cecc;strokeColor=#b85450;fontFamily=Verdana;" parent="2iJt_lVHC3lyq4W-ZF9s-21" vertex="1">
          <mxGeometry x="10" y="10" width="80" height="80" as="geometry" />
        </mxCell>
        <mxCell id="2iJt_lVHC3lyq4W-ZF9s-25" value="" style="group;fontFamily=Verdana;" parent="WIyWlLk6GJQsqaUBKTNV-1" vertex="1" connectable="0">
          <mxGeometry x="218" y="725" width="90" height="90" as="geometry" />
        </mxCell>
        <mxCell id="2iJt_lVHC3lyq4W-ZF9s-26" value="104 x 104" style="rounded=1;whiteSpace=wrap;html=1;fontSize=12;glass=0;strokeWidth=1;shadow=0;fillColor=#e1d5e7;strokeColor=#9673a6;fontFamily=Helvetica;" parent="2iJt_lVHC3lyq4W-ZF9s-25" vertex="1">
          <mxGeometry width="90" height="90" as="geometry" />
        </mxCell>
        <mxCell id="2iJt_lVHC3lyq4W-ZF9s-27" value="106 x 106" style="rounded=1;whiteSpace=wrap;html=1;fontSize=12;glass=0;strokeWidth=1;shadow=0;fillColor=#f8cecc;strokeColor=#b85450;fontFamily=Verdana;" parent="2iJt_lVHC3lyq4W-ZF9s-25" vertex="1">
          <mxGeometry x="5" y="5" width="80" height="80" as="geometry" />
        </mxCell>
        <mxCell id="2iJt_lVHC3lyq4W-ZF9s-28" value="" style="endArrow=classic;html=1;rounded=0;exitX=1;exitY=0.5;exitDx=0;exitDy=0;entryX=0;entryY=0.5;entryDx=0;entryDy=0;fontFamily=Helvetica;" parent="WIyWlLk6GJQsqaUBKTNV-1" source="2iJt_lVHC3lyq4W-ZF9s-26" target="2iJt_lVHC3lyq4W-ZF9s-22" edge="1">
          <mxGeometry width="50" height="50" relative="1" as="geometry">
            <mxPoint x="318" y="764.67" as="sourcePoint" />
            <mxPoint x="348" y="764.67" as="targetPoint" />
          </mxGeometry>
        </mxCell>
        <mxCell id="2iJt_lVHC3lyq4W-ZF9s-29" value="添加间隙" style="text;html=1;strokeColor=none;fillColor=none;align=center;verticalAlign=middle;whiteSpace=wrap;rounded=0;fontFamily=Verdana;" parent="WIyWlLk6GJQsqaUBKTNV-1" vertex="1">
          <mxGeometry x="308" y="740" width="60" height="30" as="geometry" />
        </mxCell>
        <mxCell id="2iJt_lVHC3lyq4W-ZF9s-30" value="" style="group;fontFamily=Verdana;" parent="WIyWlLk6GJQsqaUBKTNV-1" vertex="1" connectable="0">
          <mxGeometry x="508" y="720" width="100" height="100" as="geometry" />
        </mxCell>
        <mxCell id="2iJt_lVHC3lyq4W-ZF9s-31" value="" style="rounded=1;whiteSpace=wrap;html=1;fontSize=12;glass=0;strokeWidth=1;shadow=0;fontFamily=Helvetica;" parent="2iJt_lVHC3lyq4W-ZF9s-30" vertex="1">
          <mxGeometry width="100" height="100" as="geometry" />
        </mxCell>
        <mxCell id="2iJt_lVHC3lyq4W-ZF9s-32" value="104 x 104" style="rounded=1;whiteSpace=wrap;html=1;fontSize=12;glass=0;strokeWidth=1;shadow=0;fillColor=#e1d5e7;strokeColor=#9673a6;fontFamily=Helvetica;" parent="2iJt_lVHC3lyq4W-ZF9s-30" vertex="1">
          <mxGeometry x="5" y="5" width="90" height="90" as="geometry" />
        </mxCell>
        <mxCell id="2iJt_lVHC3lyq4W-ZF9s-33" value="108 x 108" style="rounded=1;whiteSpace=wrap;html=1;fontSize=12;glass=0;strokeWidth=1;shadow=0;fillColor=#f8cecc;strokeColor=#b85450;fontFamily=Verdana;" parent="2iJt_lVHC3lyq4W-ZF9s-30" vertex="1">
          <mxGeometry x="10" y="10" width="80" height="80" as="geometry" />
        </mxCell>
        <mxCell id="2iJt_lVHC3lyq4W-ZF9s-34" value="RGBA 32" style="text;html=1;strokeColor=none;fillColor=none;align=center;verticalAlign=middle;whiteSpace=wrap;rounded=0;fontFamily=Verdana;" parent="WIyWlLk6GJQsqaUBKTNV-1" vertex="1">
          <mxGeometry x="528" y="820" width="60" height="30" as="geometry" />
        </mxCell>
        <mxCell id="2iJt_lVHC3lyq4W-ZF9s-35" value="" style="group;fontFamily=Verdana;" parent="WIyWlLk6GJQsqaUBKTNV-1" vertex="1" connectable="0">
          <mxGeometry x="628" y="720" width="100" height="100" as="geometry" />
        </mxCell>
        <mxCell id="2iJt_lVHC3lyq4W-ZF9s-36" value="" style="rounded=1;whiteSpace=wrap;html=1;fontSize=12;glass=0;strokeWidth=1;shadow=0;fontFamily=Helvetica;" parent="2iJt_lVHC3lyq4W-ZF9s-35" vertex="1">
          <mxGeometry width="100" height="100" as="geometry" />
        </mxCell>
        <mxCell id="2iJt_lVHC3lyq4W-ZF9s-37" value="104 x 104" style="rounded=1;whiteSpace=wrap;html=1;fontSize=12;glass=0;strokeWidth=1;shadow=0;fillColor=#e1d5e7;strokeColor=#9673a6;fontFamily=Helvetica;" parent="2iJt_lVHC3lyq4W-ZF9s-35" vertex="1">
          <mxGeometry x="5" y="5" width="90" height="90" as="geometry" />
        </mxCell>
        <mxCell id="2iJt_lVHC3lyq4W-ZF9s-38" value="108 x 108" style="rounded=1;whiteSpace=wrap;html=1;fontSize=12;glass=0;strokeWidth=1;shadow=0;fillColor=#f8cecc;strokeColor=#b85450;fontFamily=Verdana;" parent="2iJt_lVHC3lyq4W-ZF9s-35" vertex="1">
          <mxGeometry x="10" y="10" width="80" height="80" as="geometry" />
        </mxCell>
        <mxCell id="2iJt_lVHC3lyq4W-ZF9s-39" value="ASTC 6x6" style="text;html=1;strokeColor=none;fillColor=none;align=center;verticalAlign=middle;whiteSpace=wrap;rounded=0;fontFamily=Verdana;" parent="WIyWlLk6GJQsqaUBKTNV-1" vertex="1">
          <mxGeometry x="643" y="820" width="70" height="30" as="geometry" />
        </mxCell>
        <mxCell id="MaootTwoAdG-g2rPgrC9-1" value="" style="endArrow=classic;html=1;rounded=0;exitX=1;exitY=0.5;exitDx=0;exitDy=0;entryX=0;entryY=0.5;entryDx=0;entryDy=0;" edge="1" parent="WIyWlLk6GJQsqaUBKTNV-1" source="2iJt_lVHC3lyq4W-ZF9s-31" target="2iJt_lVHC3lyq4W-ZF9s-36">
          <mxGeometry width="50" height="50" relative="1" as="geometry">
            <mxPoint x="408" y="870" as="sourcePoint" />
            <mxPoint x="458" y="820" as="targetPoint" />
          </mxGeometry>
        </mxCell>
      </root>
    </mxGraphModel>
  </diagram>
</mxfile>
